<svg width="200" height="200" viewBox="0 0 200 200" fill="none" xmlns="http://www.w3.org/2000/svg">
<path d="M168.169 136.951C163.216 138.211 160.152 137.007 157.403 132.879L137.854 105.832L135.029 102.088L112.199 132.968C109.591 136.683 106.855 138.3 101.987 136.985L131.22 97.7431L104.004 62.2966C108.684 61.386 111.918 61.8498 114.791 66.0412L135.067 93.424L155.493 66.1902C158.11 62.4753 160.922 61.0626 165.62 62.4328L155.067 76.4241L140.769 95.041C139.067 97.1686 139.301 98.6239 140.867 100.679L168.169 136.951ZM32.034 97.0878L34.4255 85.3262C40.9361 62.0498 67.6167 52.3775 86.0166 66.7604C96.7697 75.2199 99.442 87.1857 98.9101 100.59H38.2978C37.3872 124.717 54.753 139.279 76.8932 131.849C84.6591 129.241 89.2336 123.16 91.5229 115.551C92.6846 111.739 94.608 111.143 98.1909 112.232C96.3612 121.747 92.2335 129.696 83.5102 134.67C70.4763 142.117 51.8722 139.709 42.085 129.36C36.2553 123.356 33.8468 115.747 32.766 107.611C32.5957 106.266 32.2553 104.986 32 103.696C32.0227 101.495 32.034 99.2934 32.034 97.092V97.0878ZM38.4085 95.4708H93.1825C92.825 78.0241 81.9613 65.6327 67.1146 65.5264C50.8169 65.3987 39.1148 77.4965 38.4085 95.4708V95.4708Z" fill="white"/>
</svg>
