<svg width="200" height="200" viewBox="0 0 200 200" fill="none" xmlns="http://www.w3.org/2000/svg">
<g clip-path="url(#clip0_305_2)">
<path d="M99.5 139C121.315 139 139 121.315 139 99.5C139 77.6848 121.315 60 99.5 60C77.6848 60 60 77.6848 60 99.5C60 121.315 77.6848 139 99.5 139Z" fill="#13AA52"/>
<path d="M110.058 94.6736C107.563 83.6622 101.667 80.0416 101.032 78.6583C100.338 77.6824 99.6341 75.9466 99.6341 75.9466C99.6226 75.9173 99.604 75.8656 99.5824 75.8154C99.5107 76.7914 99.4737 77.1678 98.551 78.1523C97.1222 79.2694 89.7915 85.4204 89.1952 97.9308C88.6389 109.599 97.6236 116.551 98.8387 117.438L98.9768 117.536V117.527C98.9845 117.586 99.3626 120.305 99.628 123.185H100.58C100.803 121.149 101.138 119.127 101.583 117.127L101.66 117.077C102.204 116.687 102.722 116.263 103.212 115.808L103.267 115.757C105.85 113.371 110.494 107.852 110.448 99.0525C110.438 97.5847 110.308 96.1201 110.058 94.6736ZM99.5269 110.85C99.5269 110.85 99.5269 94.4854 100.067 94.4884C100.488 94.4884 101.034 115.597 101.034 115.597C100.284 115.507 99.5269 112.123 99.5269 110.85Z" fill="white"/>
</g>
<defs>
<clipPath id="clip0_305_2">
<rect width="79" height="79" fill="white" transform="translate(60 60)"/>
</clipPath>
</defs>
</svg>
