<svg width="200" height="200" viewBox="0 0 200 200" fill="none" xmlns="http://www.w3.org/2000/svg">
<g clip-path="url(#clip0_427_2)">
<path d="M98.5625 145.853C97.4891 145.853 96.4873 145.564 95.5571 145.057L86.0399 139.334C84.6087 138.537 85.3243 138.247 85.7536 138.102C87.6857 137.45 88.0435 137.305 90.0471 136.146C90.2618 136.001 90.548 136.074 90.7627 136.219L98.0616 140.638C98.3478 140.782 98.7056 140.782 98.9203 140.638L127.472 123.903C127.758 123.759 127.901 123.469 127.901 123.107V89.7107C127.901 89.3484 127.758 89.0587 127.472 88.9138L98.9203 72.2521C98.6341 72.1072 98.2763 72.1072 98.0616 72.2521L69.51 88.9138C69.2237 89.0587 69.0806 89.4209 69.0806 89.7107V123.107C69.0806 123.396 69.2237 123.759 69.51 123.903L77.3098 128.467C81.5317 130.641 84.1793 128.105 84.1793 125.57V92.6083C84.1793 92.1737 84.5371 91.739 85.038 91.739H88.6875C89.1168 91.739 89.5462 92.1012 89.5462 92.6083V125.57C89.5462 131.293 86.4692 134.625 81.1024 134.625C79.4565 134.625 78.1685 134.625 74.519 132.814L67.0054 128.467C65.1449 127.381 64 125.352 64 123.179V89.7831C64 87.6098 65.1449 85.5814 67.0054 84.4948L95.5571 67.7606C97.346 66.7465 99.779 66.7465 101.568 67.7606L130.12 84.4948C131.98 85.5814 133.125 87.6098 133.125 89.7831V123.179C133.125 125.352 131.98 127.381 130.12 128.467L101.568 145.201C100.638 145.636 99.5643 145.853 98.5625 145.853ZM107.364 122.889C94.8415 122.889 92.2654 117.094 92.2654 112.168C92.2654 111.733 92.6232 111.298 93.1241 111.298H96.8451C97.2745 111.298 97.6322 111.588 97.6322 112.023C98.2047 115.862 99.8505 117.746 107.436 117.746C113.447 117.746 116.023 116.369 116.023 113.11C116.023 111.226 115.307 109.85 105.933 108.908C98.1332 108.111 93.2672 106.372 93.2672 100.07C93.2672 94.2021 98.1332 90.7248 106.291 90.7248C115.45 90.7248 119.958 93.9123 120.531 100.867C120.531 101.084 120.459 101.301 120.316 101.519C120.173 101.664 119.958 101.809 119.744 101.809H116.023C115.665 101.809 115.307 101.519 115.236 101.157C114.377 97.1722 112.159 95.8682 106.291 95.8682C99.7074 95.8682 98.9203 98.1864 98.9203 99.925C98.9203 102.026 99.8505 102.678 108.724 103.837C117.525 104.996 121.676 106.662 121.676 112.892C121.604 119.267 116.452 122.889 107.364 122.889Z" fill="#539E43"/>
</g>
<defs>
<clipPath id="clip0_427_2">
<rect width="69.125" height="79" fill="white" transform="translate(64 67)"/>
</clipPath>
</defs>
</svg>
