<svg width="200" height="200" viewBox="0 0 200 200" fill="none" xmlns="http://www.w3.org/2000/svg">
<path d="M133 99.5067C133 95.1464 127.525 91.0142 119.13 88.4517C121.067 79.919 120.206 73.1304 116.413 70.957C115.538 70.4472 114.516 70.2057 113.399 70.2057V73.1975C114.018 73.1975 114.516 73.3182 114.933 73.5463C116.762 74.5928 117.556 78.5774 116.937 83.7024C116.789 84.9635 116.547 86.2917 116.251 87.6468C113.614 87.0028 110.735 86.5064 107.709 86.1844C105.892 83.7024 104.009 81.4485 102.112 79.4763C106.498 75.4112 110.614 73.1841 113.413 73.1841V70.1923C109.713 70.1923 104.87 72.8218 99.9731 77.3834C95.0762 72.8487 90.2332 70.2459 86.5336 70.2459V73.2377C89.3184 73.2377 93.4484 75.4514 97.8341 79.4897C95.9507 81.4619 94.0673 83.7024 92.278 86.1844C89.2377 86.5064 86.3587 87.0028 83.722 87.6602C83.4126 86.3186 83.1839 85.0172 83.0224 83.7695C82.3901 78.6445 83.1704 74.6599 84.9865 73.6C85.3901 73.3585 85.9148 73.2512 86.5336 73.2512V70.2593C85.4036 70.2593 84.3812 70.5008 83.4933 71.0107C79.713 73.1841 78.8655 79.9593 80.8161 88.4652C72.4484 91.0411 67 95.1599 67 99.5067C67 103.867 72.4753 107.999 80.87 110.562C78.9327 119.094 79.7937 125.883 83.5874 128.056C84.4619 128.566 85.4843 128.808 86.6144 128.808C90.3139 128.808 95.157 126.178 100.054 121.617C104.951 126.151 109.794 128.754 113.493 128.754C114.623 128.754 115.646 128.513 116.534 128.003C120.314 125.829 121.161 119.054 119.211 110.548C127.552 107.986 133 103.854 133 99.5067ZM115.484 90.5581C114.987 92.2888 114.368 94.0731 113.668 95.8575C113.117 94.7842 112.538 93.7109 111.906 92.6376C111.287 91.5643 110.628 90.5178 109.969 89.4982C111.879 89.78 113.722 90.1288 115.484 90.5581ZM109.323 104.846C108.274 106.658 107.197 108.375 106.081 109.971C104.076 110.146 102.045 110.24 100 110.24C97.9686 110.24 95.9372 110.146 93.9462 109.985C92.8296 108.388 91.7399 106.684 90.6906 104.887C89.6682 103.129 88.7399 101.345 87.8924 99.547C88.7265 97.7492 89.6682 95.9514 90.6771 94.1939C91.7265 92.3827 92.8027 90.6654 93.9193 89.0689C95.9238 88.8945 97.9552 88.8006 100 88.8006C102.031 88.8006 104.063 88.8945 106.054 89.0555C107.17 90.652 108.26 92.3559 109.309 94.1536C110.332 95.9112 111.26 97.6955 112.108 99.4933C111.26 101.291 110.332 103.089 109.323 104.846ZM113.668 103.102C114.395 104.9 115.013 106.698 115.525 108.442C113.762 108.871 111.906 109.233 109.982 109.515C110.641 108.482 111.3 107.422 111.919 106.336C112.538 105.262 113.117 104.176 113.668 103.102ZM100.027 117.417C98.7758 116.129 97.5247 114.694 96.287 113.124C97.4978 113.178 98.7354 113.218 99.9865 113.218C101.251 113.218 102.502 113.191 103.726 113.124C102.516 114.694 101.265 116.129 100.027 117.417ZM90.0179 109.515C88.1076 109.233 86.2646 108.885 84.5022 108.455C85 106.725 85.6188 104.94 86.3184 103.156C86.87 104.229 87.4484 105.303 88.0807 106.376C88.713 107.449 89.3587 108.496 90.0179 109.515ZM99.9596 81.5961C101.211 82.884 102.462 84.3195 103.7 85.8892C102.489 85.8356 101.251 85.7953 100 85.7953C98.7354 85.7953 97.4843 85.8222 96.2601 85.8892C97.4709 84.3195 98.722 82.884 99.9596 81.5961ZM90.0045 89.4982C89.3453 90.5313 88.6861 91.5911 88.0673 92.6779C87.4484 93.7512 86.87 94.8245 86.3184 95.8978C85.5919 94.1 84.9731 92.3022 84.4619 90.5581C86.2242 90.1422 88.0807 89.78 90.0045 89.4982ZM77.8296 106.295C73.0673 104.269 69.9865 101.613 69.9865 99.5067C69.9865 97.4004 73.0673 94.7305 77.8296 92.7181C78.9866 92.2217 80.2511 91.779 81.5561 91.3631C82.3229 93.9926 83.3318 96.7296 84.583 99.5336C83.3453 102.324 82.3498 105.048 81.5964 107.664C80.2646 107.248 79 106.792 77.8296 106.295ZM85.0673 125.467C83.2377 124.421 82.4439 120.436 83.0628 115.311C83.2108 114.05 83.4529 112.722 83.7489 111.367C86.3857 112.011 89.2646 112.507 92.2915 112.829C94.1076 115.311 95.991 117.565 97.8879 119.537C93.5022 123.602 89.3857 125.829 86.5874 125.829C85.9821 125.816 85.4709 125.695 85.0673 125.467ZM116.978 115.244C117.61 120.369 116.83 124.354 115.013 125.413C114.61 125.655 114.085 125.762 113.466 125.762C110.682 125.762 106.552 123.549 102.166 119.51C104.049 117.538 105.933 115.298 107.722 112.816C110.762 112.494 113.641 111.997 116.278 111.34C116.587 112.695 116.83 113.996 116.978 115.244ZM122.157 106.295C121 106.792 119.735 107.234 118.43 107.65C117.664 105.021 116.655 102.284 115.404 99.4799C116.641 96.6893 117.637 93.9658 118.39 91.3497C119.722 91.7656 120.987 92.2217 122.17 92.7181C126.933 94.744 130.013 97.4004 130.013 99.5067C130 101.613 126.919 104.283 122.157 106.295Z" fill="#61DAFB"/>
<path d="M99.9866 105.638C103.382 105.638 106.135 102.893 106.135 99.5067C106.135 96.1205 103.382 93.3755 99.9866 93.3755C96.5912 93.3755 93.8386 96.1205 93.8386 99.5067C93.8386 102.893 96.5912 105.638 99.9866 105.638Z" fill="#61DAFB"/>
</svg>
