<svg width="200" height="200" viewBox="0 0 200 200" fill="none" xmlns="http://www.w3.org/2000/svg">
<g clip-path="url(#clip0_427_7)">
<path d="M116.431 114.954C119.489 114.638 121.81 112.001 121.704 108.837C121.599 105.672 118.962 103.141 115.798 103.141H115.587C112.317 103.246 109.786 105.989 109.891 109.259C109.997 110.841 110.63 112.212 111.579 113.161C107.993 120.228 102.508 125.397 94.281 129.721C88.6908 132.675 82.8897 133.73 77.0886 132.991C72.3422 132.358 68.6506 130.249 66.3301 126.768C62.9549 121.6 62.6385 116.009 65.4863 110.419C67.4903 106.411 70.6546 103.457 72.6586 101.981C72.2367 100.609 71.6039 98.2888 71.2874 96.6011C55.9936 107.676 57.5757 122.654 62.2166 129.721C65.6973 134.995 72.7641 138.265 80.5692 138.265C82.6787 138.265 84.7882 138.054 86.8977 137.527C100.399 134.89 110.63 126.874 116.431 114.954ZM134.994 101.875C126.978 92.4875 115.165 87.319 101.664 87.319H99.9766C99.0274 85.4204 97.0233 84.1546 94.8084 84.1546H94.5974C91.3277 84.2601 88.7963 87.0026 88.9018 90.2724C89.0072 93.4368 91.6441 95.9683 94.8084 95.9683H95.0193C97.3398 95.8628 99.3438 94.3861 100.188 92.382H102.086C110.102 92.382 117.696 94.7025 124.552 99.2381C129.826 102.719 133.623 107.255 135.733 112.739C137.526 117.17 137.42 121.494 135.522 125.186C132.568 130.776 127.611 133.835 121.072 133.835C116.853 133.835 112.845 132.569 110.735 131.62C109.575 132.675 107.465 134.363 105.989 135.417C110.524 137.527 115.165 138.687 119.595 138.687C129.721 138.687 137.209 133.097 140.057 127.506C143.116 121.389 142.905 110.841 134.994 101.875ZM81.413 116.748C81.5185 119.912 84.1554 122.443 87.3196 122.443H87.5306C90.8003 122.338 93.3317 119.596 93.2262 116.326C93.1208 113.161 90.4839 110.63 87.3196 110.63H87.1087C86.8977 110.63 86.5813 110.63 86.3704 110.735C82.0459 103.563 80.2528 95.7573 80.8857 87.319C81.3076 80.9903 83.4171 75.5054 87.1087 70.9698C90.1675 67.0671 96.0741 65.1685 100.082 65.063C111.262 64.852 116.009 78.7752 116.325 84.3656C117.696 84.682 120.017 85.4204 121.599 85.9478C120.333 68.8602 109.786 60 99.6602 60C90.1675 60 81.413 66.8561 77.9324 76.9821C73.0805 90.4834 76.2448 103.457 82.1514 113.689C81.624 114.427 81.3076 115.587 81.413 116.748Z" fill="#764ABC"/>
</g>
<defs>
<clipPath id="clip0_427_7">
<rect width="82.8852" height="79" fill="white" transform="translate(59 60)"/>
</clipPath>
</defs>
</svg>
