<svg width="200" height="200" viewBox="0 0 200 200" fill="none" xmlns="http://www.w3.org/2000/svg">
<g filter="url(#filter0_d_22_2)">
<g clip-path="url(#clip0_22_2)">
<path d="M78.6699 62H120.213C122.234 62 124.197 62.3223 126.102 62.9961C128.855 63.9922 131.346 65.75 133.221 68.0352C135.125 70.3203 136.385 73.1328 136.824 76.0625C137 77.1465 137.029 78.2305 137.029 79.3145V119.832C137.029 121.121 136.971 122.439 136.707 123.699C136.121 126.6 134.744 129.324 132.752 131.521C130.789 133.719 128.211 135.359 125.428 136.238C123.729 136.766 121.971 137 120.184 137C119.393 137 78.5527 137 77.9375 136.971C74.9492 136.824 71.9902 135.857 69.5 134.187C67.0684 132.547 65.0762 130.262 63.7871 127.625C62.6738 125.369 62.1172 122.85 62.1172 120.33V78.6699C62.0586 76.1797 62.5859 73.7188 63.6699 71.4922C64.9297 68.8555 66.8926 66.541 69.3242 64.9004C71.8145 63.2012 74.7441 62.2051 77.7324 62.0586C78.0254 62 78.3477 62 78.6699 62V62Z" fill="url(#paint0_linear_22_2)"/>
<path d="M125.281 123.348C125.018 122.937 124.725 122.527 124.402 122.146C123.67 121.268 122.82 120.506 121.883 119.861C120.711 119.07 119.334 118.572 117.928 118.514C116.932 118.455 115.936 118.631 114.998 118.982C114.061 119.305 113.152 119.773 112.273 120.242C111.248 120.77 110.223 121.297 109.139 121.736C107.85 122.264 106.502 122.674 105.125 122.967C103.396 123.289 101.639 123.406 99.9102 123.377C96.7754 123.318 93.6406 122.85 90.6523 121.971C88.0156 121.18 85.4961 120.096 83.123 118.719C81.043 117.518 79.1094 116.141 77.293 114.588C75.7988 113.299 74.4219 111.922 73.1328 110.457C72.2539 109.432 71.4043 108.348 70.6133 107.234C70.291 106.795 69.998 106.326 69.7344 105.857L62 97.5078V78.6113C62 69.4414 69.4121 62 78.582 62H93.377L104.334 73.1328C129.061 89.9492 121.063 108.494 121.063 108.494C121.063 108.494 128.094 116.404 125.281 123.348V123.348Z" fill="url(#paint1_linear_22_2)"/>
<path d="M104.393 73.1328C129.119 89.9492 121.121 108.494 121.121 108.494C121.121 108.494 128.152 116.434 125.311 123.377C125.311 123.377 122.41 118.514 117.547 118.514C112.859 118.514 110.105 123.377 100.672 123.377C79.666 123.377 69.7344 105.828 69.7344 105.828C88.6602 118.279 101.58 109.461 101.58 109.461C93.0547 104.51 74.9199 80.8379 74.9199 80.8379C90.7109 94.2852 97.5371 97.8301 97.5371 97.8301C93.4648 94.4609 82.0391 77.9961 82.0391 77.9961C91.1797 87.2539 109.344 100.174 109.344 100.174C114.5 85.877 104.393 73.1328 104.393 73.1328Z" fill="white"/>
</g>
</g>
<defs>
<filter id="filter0_d_22_2" x="-4" y="0" width="208" height="208" filterUnits="userSpaceOnUse" color-interpolation-filters="sRGB">
<feFlood flood-opacity="0" result="BackgroundImageFix"/>
<feColorMatrix in="SourceAlpha" type="matrix" values="0 0 0 0 0 0 0 0 0 0 0 0 0 0 0 0 0 0 127 0" result="hardAlpha"/>
<feOffset dy="4"/>
<feGaussianBlur stdDeviation="2"/>
<feComposite in2="hardAlpha" operator="out"/>
<feColorMatrix type="matrix" values="0 0 0 0 0 0 0 0 0 0 0 0 0 0 0 0 0 0 0.25 0"/>
<feBlend mode="normal" in2="BackgroundImageFix" result="effect1_dropShadow_22_2"/>
<feBlend mode="normal" in="SourceGraphic" in2="effect1_dropShadow_22_2" result="shape"/>
</filter>
<linearGradient id="paint0_linear_22_2" x1="106.617" y1="59.3237" x2="92.4465" y2="139.685" gradientUnits="userSpaceOnUse">
<stop stop-color="#FAAE42"/>
<stop offset="1" stop-color="#EF3E31"/>
</linearGradient>
<linearGradient id="paint1_linear_22_2" x1="100.265" y1="63.2117" x2="89.8944" y2="122.027" gradientUnits="userSpaceOnUse">
<stop stop-color="#E39F3A"/>
<stop offset="1" stop-color="#D33929"/>
</linearGradient>
<clipPath id="clip0_22_2">
<rect width="75" height="75" fill="white" transform="translate(62 62)"/>
</clipPath>
</defs>
</svg>
