<svg width="200" height="200" viewBox="0 0 200 200" fill="none" xmlns="http://www.w3.org/2000/svg">
<g clip-path="url(#clip0_40_27)">
<path fill-rule="evenodd" clip-rule="evenodd" d="M80.75 92C83.2496 82.0004 89.5004 77 99.5 77C114.5 77 116.375 88.25 123.875 90.125C128.875 91.3754 133.25 89.5004 137 84.5C134.5 94.4996 128.25 99.5 118.25 99.5C103.25 99.5 101.375 88.25 93.875 86.375C88.8746 85.1246 84.5 86.9996 80.75 92ZM62 114.5C64.4996 104.5 70.7504 99.5 80.75 99.5C95.75 99.5 97.625 110.75 105.125 112.625C110.125 113.875 114.5 112 118.25 107C115.75 117 109.5 122 99.5 122C84.5 122 82.625 110.75 75.125 108.875C70.1246 107.625 65.75 109.5 62 114.5Z" fill="url(#paint0_linear_40_27)"/>
</g>
<defs>
<linearGradient id="paint0_linear_40_27" x1="62" y1="37.0004" x2="137" y2="162" gradientUnits="userSpaceOnUse">
<stop stop-color="#2383AE"/>
<stop offset="1" stop-color="#6DD7B9"/>
</linearGradient>
<clipPath id="clip0_40_27">
<rect width="200" height="200" fill="white"/>
</clipPath>
</defs>
</svg>
